nRows=35
nColumns=19
inDegrees=yes
endheader
time	ground_force_vx	ground_force_vy	ground_force_vz	ground_force_px	ground_force_py	ground_force_pz	1_ground_force_vx	1_ground_force_vy	1_ground_force_vz	1_ground_force_px	1_ground_force_py	1_ground_force_pz	ground_torque_x	ground_torque_y	ground_torque_z	1_ground_torque_x	1_ground_torque_y	1_ground_torque_z
20.461	-0.157524804088223	1.83511831459934	0.0805273983013323	0.300000012	0	0.609999999	-0.00986408113958955	0.892649100152737	-0.0258118307394061	0.300000012	0	0.2050000005	0.360453	-0.11253	-0.360453	0.069528	0.004328	-0.069528
20.462	-0.155753203499386	1.83572284237185	0.0798455168383932	0.300000012	0	0.609999999	-0.00878190818174694	0.894955731349992	-0.0254808633106678	0.300000012	0	0.2050000005	0.342186	-0.113973	-0.342186	0.065404	0	-0.065404
20.463	-0.154061867727589	1.83628328683823	0.0792966160550454	0.300000012	0	0.609999999	-0.00759458240552083	0.897061698888836	-0.0252121058986217	0.300000012	0	0.2050000005	0.352199	-0.116137	-0.352199	0.067383	-0.002164	-0.067383
20.464	-0.152468318304434	1.83680440606052	0.0788972229576842	0.300000012	0	0.609999999	-0.00631065834302035	0.89894368853206	-0.0249948354127583	0.300000012	0	0.2050000005	0.382545	-0.119744	-0.382545	0.072807	0	-0.072807
20.465	-0.15098815506565	1.83729005491296	0.0786613985934	0.300000012	0	0.609999999	-0.00494235226548742	0.900583897041876	-0.024815162335402	0.300000012	0	0.2050000005	0.378373	-0.113973	-0.378373	0.067257	-0.004328	-0.067257
20.466	-0.149635144981205	1.83774368325253	0.0786007614549262	0.300000012	0	0.609999999	-0.00350533422884463	0.90197078907023	-0.0246563948826067	0.300000012	0	0.2050000005	0.38206	-0.108924	-0.38206	0.070959	-0.001443	-0.070959
20.467	-0.148421286797707	1.83816909968305	0.0787245829337227	0.300000012	0	0.609999999	-0.00201826236140772	0.903099673606971	-0.0244995351275855	0.300000012	0	0.2050000005	0.372618	-0.105317	-0.372618	0.07659	-0.007213	-0.07659
20.468	-0.147356837506322	1.83857139722057	0.0790399059150625	0.300000012	0	0.609999999	-0.00050206987553777	0.90397304723437	-0.0243239269213167	0.300000012	0	0.2050000005	0.34346	-0.108924	-0.34346	0.071302	-0.002164	-0.071302
20.469	-0.146450298015045	1.83895791911381	0.0795516389790155	0.300000012	0	0.609999999	0.00102096063230845	0.904600668242749	-0.0241080652180325	0.300000012	0	0.2050000005	0.368924	-0.111088	-0.368924	0.080603	0.001443	-0.080603
20.47	-0.145708364682998	1.83933913587179	0.0802625873481623	0.300000012	0	0.609999999	0.00252827797312591	0.904999343370329	-0.0238305596910165	0.300000012	0	0.2050000005	0.379103	-0.116858	-0.379103	0.070005	-0.002885	-0.070005
20.471	-0.145135858756023	1.83972930919211	0.0811733967721018	0.300000012	0	0.609999999	0.00399822175242264	0.905192425131278	-0.0234712241373472	0.300000012	0	0.2050000005	0.36393	-0.113252	-0.36393	0.07476	-0.002885	-0.07476
20.472	-0.144735646491712	1.84014683477743	0.0822824061335666	0.300000012	0	0.609999999	0.00541117203719166	0.905209031331094	-0.0230122400822517	0.300000012	0	0.2050000005	0.371448	-0.113252	-0.371448	0.076587	-0.000721	-0.076587
20.473	-0.144508559424446	1.84061418257945	0.0835854260105542	0.300000012	0	0.609999999	0.00675059822146565	0.905083009592337	-0.0224393218300127	0.300000012	0	0.2050000005	0.361201	-0.121187	-0.361201	0.060226	0.004328	-0.060226
20.474	-0.144453318480142	1.84115738750689	0.0850754804224591	0.300000012	0	0.609999999	0.00800392288233892	0.904851679339162	-0.0217427946548857	0.300000012	0	0.2050000005	0.369196	-0.11758	-0.369196	0.061278	-0.008656	-0.061278
20.475	-0.144566459867104	1.84180508313919	0.0867425641028507	0.300000012	0	0.609999999	0.00916313189412991	0.90455439250166	-0.0209184910407948	0.300000012	0	0.2050000005	0.347196	-0.116137	-0.347196	0.062476	0	-0.062476
20.476	-0.144842257253948	1.84258711210955	0.0885734749881682	0.300000012	0	0.609999999	0.0102250837825837	0.904230962391522	-0.0199683739818418	0.300000012	0	0.2050000005	0.356347	-0.113252	-0.356347	0.067174	0.003607	-0.067174
20.477	-0.145272635532495	1.84353278595987	0.0905517794214055	0.300000012	0	0.609999999	0.0111914962612712	0.903920017158576	-0.0189008119982542	0.300000012	0	0.2050000005	0.365511	-0.119023	-0.365511	0.082585	-0.005771	-0.082585
20.478	-0.145847077224469	1.84466890107197	0.092657955581897	0.300000012	0	0.609999999	0.0120686132299077	0.903657338883203	-0.0177304566055525	0.300000012	0	0.2050000005	0.354952	-0.119744	-0.354952	0.075608	0.009378	-0.075608
20.479	-0.14655253274505	1.84601764313239	0.0948697402493302	0.300000012	0	0.609999999	0.0128665789546996	0.903474250873136	-0.0164777066617133	0.300000012	0	0.2050000005	0.382001	-0.124072	-0.382001	0.068235	0.006492	-0.068235
20.48	-0.147373358314902	1.84759452879944	0.0971626780828198	0.300000012	0	0.609999999	0.0135985661215122	0.903396114164262	-0.0151677811629444	0.300000012	0	0.2050000005	0.364169	-0.124072	-0.364169	0.074454	0.007935	-0.074454
20.481	-0.148291317266029	1.84940653886686	0.0995108451116707	0.300000012	0	0.609999999	0.014279719971373	0.90344099048512	-0.0138294580012554	0.300000012	0	0.2050000005	0.351559	-0.124793	-0.351559	0.074478	0.007935	-0.074478
20.482	-0.149285688377744	1.85145059187651	0.101887693433449	0.300000012	0	0.609999999	0.0149259912587548	0.903618524193797	-0.0124935666577081	0.300000012	0	0.2050000005	0.368231	-0.126957	-0.368231	0.074775	0.002164	-0.074775
20.483	-0.150333525779966	1.85371249107109	0.104266946076264	0.300000012	0	0.609999999	0.0155529361440281	0.903929090618346	-0.0111913446070496	0.300000012	0	0.2050000005	0.334941	-0.118301	-0.334941	0.062368	0.009378	-0.062368
20.484	-0.151410107210586	1.85616645191634	0.106623462307885	0.300000012	0	0.609999999	0.0161745614830579	0.904363252732662	-0.00995277863909236	0.300000012	0	0.2050000005	0.333916	-0.118301	-0.333916	0.078137	0.003607	-0.078137
20.485	-0.152489590971971	1.85877528418425	0.108933995504838	0.300000012	0	0.609999999	0.0168022896643237	0.904901561609635	-0.00880505308170469	0.300000012	0	0.2050000005	0.347174	-0.111088	-0.347174	0.071868	0.003607	-0.071868
20.486	-0.153545878364721	1.86149126431685	0.111177777595995	0.300000012	0	0.609999999	0.0174441085834122	0.905514728223727	-0.00777121784284318	0.300000012	0	0.2050000005	0.340294	-0.113973	-0.340294	0.067837	0.007213	-0.067837
20.487	-0.154553650641167	1.86425769290349	0.113336884293276	0.300000012	0	0.609999999	0.0181039599156043	0.90616418519152	-0.00686917165005462	0.300000012	0	0.2050000005	0.352111	-0.113973	-0.352111	0.080032	0.006492	-0.080032
20.488	-0.155489521592505	1.86701109042573	0.115396361041523	0.300000012	0	0.609999999	0.0187814029689696	0.906803047742299	-0.00611103139358135	0.300000012	0	0.2050000005	0.365124	-0.10676	-0.365124	0.067008	-0.000721	-0.067008
20.489	-0.156333223140246	1.86968394324665	0.11734411746047	0.300000012	0	0.609999999	0.0194715727599808	0.907377474282402	-0.00550292866682993	0.300000012	0	0.2050000005	0.354156	-0.11253	-0.354156	0.056819	0.008656	-0.056819
20.49	-0.157068725688375	1.87220787248271	0.119170624395346	0.300000012	0	0.609999999	0.020165430702264	0.907828418204346	-0.00504524127488889	0.300000012	0	0.2050000005	0.357108	-0.119744	-0.357108	0.06249	0.011542	-0.06249
20.491	-0.157685190216743	1.87451706291376	0.120868469123018	0.300000012	0	0.609999999	0.0208502860318075	0.908093752820281	-0.00473323295733595	0.300000012	0	0.2050000005	0.340148	-0.118301	-0.340148	0.071088	0.002164	-0.071088
20.492	-0.158177656173151	1.87655176034905	0.122431837998319	0.300000012	0	0.609999999	0.0215105475807056	0.908110738387975	-0.00455804167210559	0.300000012	0	0.2050000005	0.349122	-0.114694	-0.349122	0.069692	0.004328	-0.069692
20.493	-0.158547387456938	1.87826162722865	0.123856000161724	0.300000012	0	0.609999999	0.0221286503324596	0.907818782064755	-0.00450792857079435	0.300000012	0	0.2050000005	0.3517	-0.114694	-0.3517	0.058164	0.000721	-0.058164
20.494	-0.158801826093939	1.87960874078748	0.125136860577304	0.300000012	0	0.609999999	0.0226860904462863	0.907162417200185	-0.00456967905008686	0.300000012	0	0.2050000005	0.367256	-0.118301	-0.367256	0.066631	0.004328	-0.066631
20.495	-0.158954136541139	1.88057002800333	0.126270636865938	0.300000012	0	0.609999999	0.0231644966871255	0.906094398415392	-0.00473003602355644	0.300000012	0	0.2050000005	0.348176	-0.120465	-0.348176	0.081921	0.005771	-0.081921
